<svg xmlns="http://www.w3.org/2000/svg" version="1.1" xmlns:xlink="http://www.w3.org/1999/xlink" xmlns:svgjs="http://svgjs.dev/svgjs" width="1000" height="290" viewBox="0 0 1000 290"><g transform="matrix(1,0,0,1,-0.6060606060606233,0.49139089791589186)"><svg viewBox="0 0 396 115" data-background-color="#ffffff" preserveAspectRatio="xMidYMid meet" height="290" width="1000" xmlns="http://www.w3.org/2000/svg" xmlns:xlink="http://www.w3.org/1999/xlink"><g id="tight-bounds" transform="matrix(1,0,0,1,0.2400000000000091,-0.19485755499459856)"><svg viewBox="0 0 395.52 115.38971510998917" height="115.38971510998917" width="395.52"><g><svg viewBox="0 0 395.52 115.38971510998917" height="115.38971510998917" width="395.52"><g><svg viewBox="0 0 395.52 115.38971510998917" height="115.38971510998917" width="395.52"><g id="textblocktransform"><svg viewBox="0 0 395.52 115.38971510998917" height="115.38971510998917" width="395.52" id="textblock"><g><svg viewBox="0 0 395.52 115.38971510998917" height="115.38971510998917" width="395.52"><g transform="matrix(1,0,0,1,0,0)"><svg width="395.52" viewBox="0 -36.099998474121094 140.74000549316406 40.44999694824219" height="115.38971510998917" data-palette-color="#0f73ee"><g class="wordmark-text-0" data-fill-palette-color="primary" id="text-0"><path d="M2.3 4.35L2.3 4.35Q0.8 3.55 0.4 2.7 0 1.85 0 1.25L0 1.25Q0-0.1 0.98-2.38 1.95-4.65 3.6-7.6 5.25-10.55 7.35-13.75L7.35-13.75Q5.8-13.85 4.4-13.9 3-13.95 0.8-13.95L0.8-13.95 0-13.95Q0.7-15.75 2.23-16.48 3.75-17.2 5.8-17.2L5.8-17.2Q6.65-17.2 7.58-17.1 8.5-17 9.5-16.9L9.5-16.9Q12-20.5 14.43-23.7 16.85-26.9 19.03-29.48 21.2-32.05 22.9-33.7L22.9-33.7Q25.3-36.1 26.4-36.1L26.4-36.1Q27.1-36.1 27.98-35.55 28.85-35 29.8-34.15L29.8-34.15Q29.3-33.75 28.53-32.1 27.75-30.45 26.88-27.93 26-25.4 25.13-22.4 24.25-19.4 23.55-16.3 22.85-13.2 22.43-10.38 22-7.55 22-5.4L22-5.4Q22-3.4 22.4-2.43 22.8-1.45 23.75-1.45L23.75-1.45Q24.9-1.45 26.6-3.2 28.3-4.95 30.4-8.9L30.4-8.9 31.3-7.95Q29.75-3.85 27.28-1.2 24.8 1.45 22 1.45L22 1.45Q19.6 1.45 18.6-0.63 17.6-2.7 17.6-6.3L17.6-6.3Q17.6-7.45 17.75-8.9 17.9-10.35 18.25-12.5L18.25-12.5Q16.05-12.85 14.35-13.05 12.65-13.25 11.1-13.45L11.1-13.45Q8.7-9.2 6.45-4.65 4.2-0.1 2.3 4.35ZM18.75-14.95L18.75-14.95Q19.4-17.9 20.28-20.93 21.15-23.95 22.13-26.73 23.1-29.5 24.05-31.7L24.05-31.7Q22.55-30.5 20.7-28.25 18.85-26 16.82-22.95 14.8-19.9 12.7-16.3L12.7-16.3Q14.2-16 15.7-15.65 17.2-15.3 18.75-14.95ZM40.8 1.3L40.8 1.3Q38.95 1.3 37.8 0.33 36.65-0.65 36.65-2.3L36.65-2.3Q36.65-3.7 37.35-5.3 38.05-6.9 38.77-8.45 39.5-10 39.5-11.2L39.5-11.2Q39.5-12.35 38.75-13.13 38-13.9 37-14.4L37-14.4Q35.9-11.65 34.52-9.08 33.15-6.5 32.3-5.05L32.3-5.05 31.55-6.5Q32.25-7.8 33.4-10.2 34.55-12.6 35.6-15.55L35.6-15.55Q35.1-16.05 35.1-16.9L35.1-16.9Q35.1-18.2 35.9-19.35 36.7-20.5 37.45-20.5L37.45-20.5Q38.05-20.5 38.32-19.83 38.6-19.15 38.6-18.9L38.6-18.9Q38.6-18.65 38.37-18 38.15-17.35 38.05-17.05L38.05-17.05Q38.1-16.5 38.92-15.98 39.75-15.45 40.8-14.75 41.85-14.05 42.65-13 43.45-11.95 43.45-10.35L43.45-10.35Q43.45-8.9 42.8-7.4 42.15-5.9 41.5-4.6 40.85-3.3 40.85-2.35L40.85-2.35Q40.85-1.65 41.22-1.43 41.6-1.2 42.1-1.2L42.1-1.2Q43.3-1.2 44.6-1.93 45.9-2.65 47.15-3.8 48.4-4.95 49.35-6.23 50.3-7.5 50.8-8.55L50.8-8.55 52-7.65Q51.05-5.5 49.25-3.43 47.45-1.35 45.25-0.03 43.05 1.3 40.8 1.3ZM54.25 2.3L54.25 2.3Q52.05 2.3 50.7 1 49.35-0.3 49.35-2.95L49.35-2.95Q49.35-5 50.12-8.05 50.9-11.1 52.1-14.35L52.1-14.35Q51.75-14.45 51.27-14.53 50.8-14.6 50.35-14.8L50.35-14.8 50.35-16.35Q51.15-16.25 51.67-16.2 52.2-16.15 52.75-16.1L52.75-16.1Q53.8-18.75 55.02-21.23 56.25-23.7 57.47-25.65 58.7-27.6 59.8-28.73 60.9-29.85 61.75-29.85L61.75-29.85Q62.25-29.85 62.7-29.48 63.15-29.1 63.15-28.4L63.15-28.4Q63.15-27.4 62.12-25.55 61.1-23.7 59.6-21.23 58.1-18.75 56.7-15.95L56.7-15.95Q57.1-15.95 57.5-15.95 57.9-15.95 58.25-15.95L58.25-15.95Q60.45-15.95 62.22-16.03 64-16.1 65.85-16.3L65.85-16.3 65.85-14.65Q63.1-14.4 60.8-14.25 58.5-14.1 56.4-14.05L56.4-14.05Q56.25-14.05 56.1-14.05 55.95-14.05 55.8-14.05L55.8-14.05Q54.75-11.6 53.97-9.03 53.2-6.45 53.2-4L53.2-4Q53.2-1.95 53.85-1.1 54.5-0.25 55.9-0.25L55.9-0.25Q58.4-0.25 61.02-2.53 63.65-4.8 65.6-8.7L65.6-8.7 66.3-8.2Q65-5.25 63.07-2.85 61.15-0.45 58.9 0.93 56.65 2.3 54.25 2.3ZM66.39 1.9L66.39 1.9Q65.29 1.9 64.82 0.2 64.34-1.5 64.34-3.75L64.34-3.75Q64.34-6.05 65.12-9.3 65.89-12.55 67.22-16.15 68.54-19.75 70.17-23.2 71.79-26.65 73.52-29.48 75.24-32.3 76.82-34 78.39-35.7 79.59-35.7L79.59-35.7Q80.64-35.7 81.19-34.55 81.74-33.4 81.74-32.15L81.74-32.15Q81.74-30.8 81.12-28.83 80.49-26.85 79.39-24.6 78.29-22.35 76.82-20.18 75.34-18 73.62-16.2 71.89-14.4 70.04-13.3L70.04-13.3Q69.39-11.6 69.02-10.13 68.64-8.65 68.49-7.35 68.34-6.05 68.34-4.8L68.34-4.8Q68.34-4.55 68.37-4.28 68.39-4 68.39-3.75L68.39-3.75Q68.59-4.05 69.04-5.3 69.49-6.55 70.27-8.22 71.04-9.9 72.19-11.53 73.34-13.15 74.89-14.23 76.44-15.3 78.44-15.3L78.44-15.3Q80.14-15.3 81.09-14.53 82.04-13.75 82.44-12.63 82.84-11.5 82.84-10.35L82.84-10.35Q82.84-8.75 82.32-7.35 81.79-5.95 81.27-4.73 80.74-3.5 80.74-2.4L80.74-2.4Q80.74-1.5 81.14-1.15 81.54-0.8 82.09-0.8L82.09-0.8Q83.19-0.8 84.67-1.9 86.14-3 87.62-4.83 89.09-6.65 90.14-8.85L90.14-8.85 90.94-8Q89.79-5.5 88.24-3.4 86.69-1.3 84.84-0.05 82.99 1.2 80.84 1.2L80.84 1.2Q78.94 1.2 77.94 0.2 76.94-0.8 76.94-2.3L76.94-2.3Q76.94-3.35 77.32-4.63 77.69-5.9 78.04-7.2 78.39-8.5 78.39-9.55L78.39-9.55Q78.39-10.75 77.87-11.2 77.34-11.65 76.59-11.65L76.59-11.65Q75.34-11.65 74.34-10.68 73.34-9.7 72.54-8.15 71.74-6.6 71.04-4.88 70.34-3.15 69.64-1.6 68.94-0.05 68.17 0.93 67.39 1.9 66.39 1.9ZM71.09-16.5L71.09-16.5Q72.39-17.65 73.59-19.25 74.79-20.85 75.82-22.58 76.84-24.3 77.62-25.93 78.39-27.55 78.84-28.85 79.29-30.15 79.34-30.85L79.34-30.85Q79.34-30.9 79.34-30.93 79.34-30.95 79.34-31L79.34-31Q79.04-31 78.07-29.78 77.09-28.55 75.82-26.48 74.54-24.4 73.27-21.8 71.99-19.2 71.09-16.5ZM92.79 1.5L92.79 1.5Q90.59 1.5 89.49 0.2 88.39-1.1 88.39-2.95L88.39-2.95Q88.39-4.1 88.79-5.85 89.19-7.6 89.92-9.53 90.64-11.45 91.59-13.15 92.54-14.85 93.64-15.93 94.74-17 95.84-17L95.84-17Q96.44-17 96.89-16.65 97.34-16.3 97.34-15.55L97.34-15.55Q97.34-14.9 96.57-13.6 95.79-12.3 94.77-10.6 93.74-8.9 92.97-7.08 92.19-5.25 92.19-3.6L92.19-3.6Q92.19-2 92.77-1.48 93.34-0.95 94.44-0.95L94.44-0.95Q96.14-0.95 98.14-2.65 100.14-4.35 102.29-8.6L102.29-8.6 103.04-7.8Q101.29-3.4 98.59-0.95 95.89 1.5 92.79 1.5ZM98.69-21.05L98.69-21.05Q97.74-21.05 96.97-21.53 96.19-22 96.19-23L96.19-23Q96.19-24.2 97.49-25.05 98.79-25.9 100.19-25.9L100.19-25.9Q101.09-25.9 101.72-25.5 102.34-25.1 102.34-24.05L102.34-24.05Q102.34-23 101.19-22.03 100.04-21.05 98.69-21.05ZM104.69 1.95L104.69 1.95Q102.84 1.95 102.11 0.28 101.39-1.4 101.39-4.05L101.39-4.05Q101.39-4.6 101.44-6.03 101.49-7.45 101.59-10L101.59-10Q101.64-11.5 101.91-12.05 102.19-12.6 103.49-12.6L103.49-12.6Q104.69-12.6 104.91-12.13 105.14-11.65 105.14-10.2L105.14-10.2Q105.14-8.7 105.01-7 104.89-5.3 104.89-3.7L104.89-3.7Q104.89-2.15 105.04-1.43 105.19-0.7 105.79-0.7L105.79-0.7Q106.69-0.7 107.74-1.68 108.79-2.65 109.86-4.17 110.94-5.7 111.91-7.48 112.89-9.25 113.64-10.9L113.64-10.9Q113.74-14.3 114.44-15.45 115.14-16.6 116.24-16.6L116.24-16.6Q117.49-16.6 117.94-15.8 118.39-15 118.39-14.4L118.39-14.4Q118.39-13.65 117.99-13.05 117.59-12.45 117.19-11.4 116.79-10.35 116.79-8.2L116.79-8.2Q116.79-7.5 116.91-6.68 117.04-5.85 117.51-5.28 117.99-4.7 118.94-4.7L118.94-4.7Q119.94-4.7 120.86-5.53 121.79-6.35 122.84-8.4L122.84-8.4 123.39-7.95Q122.24-5.2 120.81-4.1 119.39-3 118.09-3L118.09-3Q116.44-3 115.41-4.33 114.39-5.65 113.84-7.65L113.84-7.65Q112.64-5.4 111.11-3.2 109.59-1 107.94 0.48 106.29 1.95 104.69 1.95ZM127.29 2.2L127.29 2.2Q124.09 2.2 122.36 0.48 120.64-1.25 120.64-3.85L120.64-3.85Q120.64-6.05 121.76-8.53 122.89-11 124.79-13.18 126.69-15.35 128.99-16.7 131.29-18.05 133.59-18.05L133.59-18.05Q134.89-18.05 136.06-17.38 137.24-16.7 137.24-14.7L137.24-14.7Q137.24-12.8 136.14-11.15 135.04-9.5 133.19-8.2 131.34-6.9 129.11-6.08 126.89-5.25 124.64-5L124.64-5Q124.59-4.8 124.56-4.58 124.54-4.35 124.54-3.85L124.54-3.85Q124.54-3.6 124.61-2.98 124.69-2.35 125.04-1.65 125.39-0.95 126.19-0.45 126.99 0.05 128.39 0.05L128.39 0.05Q130.49 0.05 132.61-1.13 134.74-2.3 136.61-4.25 138.49-6.2 139.74-8.6L139.74-8.6 140.74-7.8Q139.39-4.8 137.26-2.55 135.14-0.3 132.56 0.95 129.99 2.2 127.29 2.2ZM125.19-6.85L125.19-6.85Q126.49-7 128.09-7.75 129.69-8.5 131.16-9.65 132.64-10.8 133.59-12.18 134.54-13.55 134.54-14.95L134.54-14.95Q134.54-15.5 134.34-15.7 134.14-15.9 133.69-15.9L133.69-15.9Q132.54-15.9 131.29-15.08 130.04-14.25 128.84-12.93 127.64-11.6 126.69-10 125.74-8.4 125.19-6.85Z" fill="#0f73ee" data-fill-palette-color="primary"></path></g></svg></g></svg></g></svg></g></svg></g><g></g></svg></g><defs></defs></svg><rect width="395.52" height="115.38971510998917" fill="none" stroke="none" visibility="hidden"></rect></g></svg></g></svg>