<svg xmlns="http://www.w3.org/2000/svg" version="1.1" xmlns:xlink="http://www.w3.org/1999/xlink" xmlns:svgjs="http://svgjs.dev/svgjs" width="1000" height="300" viewBox="0 0 1000 300"><g transform="matrix(1,0,0,1,-0.6060606060606233,-0.043391788321770264)"><svg viewBox="0 0 396 119" data-background-color="#ffffff" preserveAspectRatio="xMidYMid meet" height="300" width="1000" xmlns="http://www.w3.org/2000/svg" xmlns:xlink="http://www.w3.org/1999/xlink"><g id="tight-bounds" transform="matrix(1,0,0,1,0.2400000000000091,0.017212076034297752)"><svg viewBox="0 0 395.52 118.9655758479314" height="118.9655758479314" width="395.52"><g><svg viewBox="0 0 395.52 118.9655758479314" height="118.9655758479314" width="395.52"><g><svg viewBox="0 0 395.52 118.9655758479314" height="118.9655758479314" width="395.52"><g id="textblocktransform"><svg viewBox="0 0 395.52 118.9655758479314" height="118.9655758479314" width="395.52" id="textblock"><g><svg viewBox="0 0 395.52 118.9655758479314" height="118.9655758479314" width="395.52"><g transform="matrix(1,0,0,1,0,0)"><svg width="395.52" viewBox="-0.85 -36 136.54 40.35" height="118.9655758479314" data-palette-color="#ffffff"><g class="wordmark-text-0" data-fill-palette-color="primary" id="text-0"><path d="M0.85 4.35L0.85 4.35Q-0.25 3.7-0.55 2.98-0.85 2.25-0.85 1.75L-0.85 1.75Q-0.85 0.35 0.18-2.05 1.2-4.45 2.93-7.53 4.65-10.6 6.75-13.9L6.75-13.9Q4.9-14.05 3.6-14.1 2.3-14.15 1.35-14.15L1.35-14.15-0.4-14.15Q0.15-15.6 1.53-16.18 2.9-16.75 4.8-16.75L4.8-16.75Q5.65-16.75 6.55-16.65 7.45-16.55 8.4-16.4L8.4-16.4Q10.95-20.25 13.63-23.88 16.3-27.5 18.63-30.33 20.95-33.15 22.5-34.6L22.5-34.6Q23.95-36 24.9-36L24.9-36Q25.45-36 26.13-35.58 26.8-35.15 27.55-34.4L27.55-34.4Q27.05-34 26.28-32.27 25.5-30.55 24.63-27.95 23.75-25.35 22.9-22.25 22.05-19.15 21.33-15.93 20.6-12.7 20.18-9.8 19.75-6.9 19.75-4.7L19.75-4.7Q19.75-2.8 20.18-1.75 20.6-0.7 21.6-0.7L21.6-0.7Q22.9-0.7 24.55-2.5 26.2-4.3 28.15-8.1L28.15-8.1 28.65-7.6Q27.15-3.6 24.83-1.05 22.5 1.5 20 1.5L20 1.5Q17.95 1.5 17.03-0.33 16.1-2.15 16.1-5.2L16.1-5.2Q16.1-6.8 16.32-8.7 16.55-10.6 16.95-12.65L16.95-12.65Q14.75-13 12.93-13.23 11.1-13.45 9.55-13.65L9.55-13.65Q7.2-9.3 4.98-4.7 2.75-0.1 0.85 4.35ZM17.3-14.4L17.3-14.4Q18.05-17.7 19.05-21.08 20.05-24.45 21.18-27.5 22.3-30.55 23.3-32.85L23.3-32.85Q21.75-31.9 19.73-29.48 17.7-27.05 15.45-23.58 13.2-20.1 10.85-15.95L10.85-15.95Q12.55-15.6 14.23-15.18 15.9-14.75 17.3-14.4ZM38.25 1.3L38.25 1.3Q36.55 1.3 35.57 0.4 34.6-0.5 34.6-1.95L34.6-1.95Q34.6-3.45 35.3-5.1 36-6.75 36.67-8.38 37.35-10 37.35-11.3L37.35-11.3Q37.35-12.9 36.42-13.68 35.5-14.45 34.55-15.1L34.55-15.1Q33.4-12.15 32.15-9.5 30.9-6.85 30.1-5.5L30.1-5.5 29.65-6.35Q30.35-7.65 31.47-10.15 32.6-12.65 33.7-15.85L33.7-15.85Q33.2-16.35 33.2-17.05L33.2-17.05Q33.2-18.55 34.05-19.5 34.9-20.45 35.3-20.45L35.3-20.45Q35.85-20.45 35.92-19.98 36-19.5 36-19.25L36-19.25Q36-19 35.72-18.28 35.45-17.55 35.45-17.4L35.45-17.4Q35.45-16.7 36.22-16.13 37-15.55 38-14.83 39-14.1 39.77-13.08 40.55-12.05 40.55-10.45L40.55-10.45Q40.55-8.95 39.92-7.4 39.3-5.85 38.67-4.45 38.05-3.05 38.05-2L38.05-2Q38.05-1.1 38.5-0.8 38.95-0.5 39.55-0.5L39.55-0.5Q40.75-0.5 42.02-1.25 43.3-2 44.5-3.15 45.7-4.3 46.65-5.58 47.6-6.85 48.05-7.95L48.05-7.95 48.7-7.45Q47.75-5.35 46.1-3.33 44.45-1.3 42.42 0 40.4 1.3 38.25 1.3ZM51.25 2.3L51.25 2.3Q49.1 2.3 47.95 1.05 46.8-0.2 46.8-2.65L46.8-2.65Q46.8-4.85 47.62-8.08 48.45-11.3 49.7-14.7L49.7-14.7Q49.2-14.8 48.75-14.88 48.3-14.95 47.9-15.1L47.9-15.1 47.9-16Q48.3-15.95 48.85-15.9 49.4-15.85 50.1-15.8L50.1-15.8Q51.15-18.5 52.35-21.03 53.55-23.55 54.72-25.53 55.9-27.5 56.97-28.68 58.05-29.85 58.8-29.85L58.8-29.85Q59.2-29.85 59.52-29.58 59.85-29.3 59.85-28.75L59.85-28.75Q59.85-27.9 58.8-25.98 57.75-24.05 56.2-21.4 54.65-18.75 53.2-15.65L53.2-15.65Q53.65-15.65 54.12-15.65 54.6-15.65 55.05-15.65L55.05-15.65Q56.7-15.65 58.52-15.7 60.35-15.75 62.2-15.95L62.2-15.95 62.2-15.05Q59.45-14.75 57.27-14.6 55.1-14.45 53.4-14.45L53.4-14.45Q53.2-14.45 53.02-14.45 52.85-14.45 52.65-14.45L52.65-14.45Q51.5-11.8 50.7-9 49.9-6.2 49.9-3.55L49.9-3.55Q49.9-1.4 50.55-0.48 51.2 0.45 52.7 0.45L52.7 0.45Q55.3 0.45 57.8-1.85 60.3-4.15 62.2-8.1L62.2-8.1 62.85-7.6Q61.65-4.8 59.82-2.55 58-0.3 55.8 1 53.6 2.3 51.25 2.3ZM63.59 1.9L63.59 1.9Q62.64 1.9 62.09 0.3 61.54-1.3 61.54-3.3L61.54-3.3Q61.54-5.7 62.34-9 63.14-12.3 64.44-15.95 65.74-19.6 67.37-23.1 68.99-26.6 70.69-29.45 72.39-32.3 73.89-34 75.39-35.7 76.49-35.7L76.49-35.7Q77.39-35.7 77.77-34.63 78.14-33.55 78.14-32.55L78.14-32.55Q78.14-31.15 77.52-29.15 76.89-27.15 75.79-24.88 74.69-22.6 73.24-20.4 71.79-18.2 70.09-16.38 68.39-14.55 66.64-13.5L66.64-13.5Q66.04-12.05 65.62-10.25 65.19-8.45 64.99-6.73 64.79-5 64.79-3.65L64.79-3.65Q64.79-3.1 64.82-2.7 64.84-2.3 64.89-1.95L64.89-1.95Q65.59-4 66.42-5.93 67.24-7.85 68.19-9.47 69.14-11.1 70.22-12.33 71.29-13.55 72.49-14.23 73.69-14.9 75.04-14.9L75.04-14.9Q76.44-14.9 77.27-14.23 78.09-13.55 78.47-12.53 78.84-11.5 78.84-10.4L78.84-10.4Q78.84-8.85 78.32-7.4 77.79-5.95 77.24-4.6 76.69-3.25 76.69-2L76.69-2Q76.69-1 77.12-0.55 77.54-0.1 78.19-0.1L78.19-0.1Q79.34-0.1 80.77-1.2 82.19-2.3 83.59-4.13 84.99-5.95 85.99-8.1L85.99-8.1 86.64-7.5Q85.59-5.05 84.09-3.08 82.59-1.1 80.79 0.05 78.99 1.2 77.04 1.2L77.04 1.2Q75.34 1.2 74.47 0.3 73.59-0.6 73.59-1.95L73.59-1.95Q73.59-3 73.99-4.3 74.39-5.6 74.77-6.95 75.14-8.3 75.14-9.5L75.14-9.5Q75.14-10.8 74.59-11.35 74.04-11.9 73.24-11.9L73.24-11.9Q71.99-11.9 70.99-10.9 69.99-9.9 69.17-8.33 68.34-6.75 67.62-5 66.89-3.25 66.24-1.68 65.59-0.1 64.94 0.9 64.29 1.9 63.59 1.9ZM67.29-15.45L67.29-15.45Q68.69-16.55 70.02-18.25 71.34-19.95 72.49-21.88 73.64-23.8 74.54-25.65 75.44-27.5 75.94-29 76.44-30.5 76.44-31.25L76.44-31.25Q76.44-31.5 76.39-31.58 76.34-31.65 76.24-31.65L76.24-31.65Q75.89-31.65 74.82-30.28 73.74-28.9 72.34-26.6 70.94-24.3 69.59-21.4 68.24-18.5 67.29-15.45ZM88.64 1.3L88.64 1.3Q86.69 1.3 85.74 0.08 84.79-1.15 84.79-2.9L84.79-2.9Q84.79-4.05 85.22-5.8 85.64-7.55 86.34-9.47 87.04-11.4 87.97-13.1 88.89-14.8 89.94-15.88 90.99-16.95 91.99-16.95L91.99-16.95Q92.44-16.95 92.77-16.68 93.09-16.4 93.09-15.85L93.09-15.85Q93.09-15.25 92.32-13.9 91.54-12.55 90.49-10.8 89.44-9.05 88.67-7.13 87.89-5.2 87.89-3.45L87.89-3.45Q87.89-1.65 88.49-1.05 89.09-0.45 90.34-0.45L90.34-0.45Q92.04-0.45 93.97-2.15 95.89-3.85 98.04-8.1L98.04-8.1 98.49-7.6Q97.04-3.3 94.32-1 91.59 1.3 88.64 1.3ZM94.64-21.6L94.64-21.6Q93.84-21.6 93.22-22 92.59-22.4 92.59-23.25L92.59-23.25Q92.59-24.3 93.82-25.08 95.04-25.85 96.24-25.85L96.24-25.85Q96.99-25.85 97.44-25.5 97.89-25.15 97.89-24.3L97.89-24.3Q97.89-23.35 96.87-22.48 95.84-21.6 94.64-21.6ZM100.34 1.95L100.34 1.95Q98.79 1.95 98.19 0.43 97.59-1.1 97.59-3.55L97.59-3.55Q97.59-3.65 97.64-5.13 97.69-6.6 97.89-10.1L97.89-10.1Q97.99-11.45 98.19-11.95 98.39-12.45 99.49-12.45L99.49-12.45Q100.34-12.45 100.56-12.13 100.79-11.8 100.79-10.85L100.79-10.85Q100.79-9.2 100.56-6.98 100.34-4.75 100.34-2.8L100.34-2.8Q100.34-1.35 100.59-0.68 100.84 0 101.49 0L101.49 0Q102.39 0 103.49-1.03 104.59-2.05 105.74-3.73 106.89-5.4 107.91-7.3 108.94-9.2 109.74-10.95L109.74-10.95Q109.84-14.35 110.46-15.48 111.09-16.6 112.04-16.6L112.04-16.6Q112.99-16.6 113.41-15.93 113.84-15.25 113.84-14.7L113.84-14.7Q113.84-14.05 113.41-13.35 112.99-12.65 112.54-11.45 112.09-10.25 112.09-8L112.09-8Q112.09-7.2 112.24-6.3 112.39-5.4 112.89-4.8 113.39-4.2 114.44-4.2L114.44-4.2Q115.49-4.2 116.46-5.03 117.44-5.85 118.39-7.9L118.39-7.9 119.04-7.4Q117.94-4.9 116.61-4.05 115.29-3.2 114.09-3.2L114.09-3.2Q112.44-3.2 111.34-4.4 110.24-5.6 109.89-8.05L109.89-8.05Q108.69-5.6 107.06-3.33 105.44-1.05 103.69 0.45 101.94 1.95 100.34 1.95ZM122.84 2.2L122.84 2.2Q119.78 2.2 118.26 0.53 116.73-1.15 116.73-3.6L116.73-3.6Q116.73-5.85 117.86-8.35 118.98-10.85 120.86-13.05 122.73-15.25 124.98-16.63 127.23-18 129.44-18L129.44-18Q130.59-18 131.56-17.4 132.53-16.8 132.53-14.95L132.53-14.95Q132.53-13.05 131.41-11.38 130.28-9.7 128.46-8.4 126.64-7.1 124.46-6.28 122.28-5.45 120.14-5.25L120.14-5.25Q120.03-4.75 119.98-4.3 119.94-3.85 119.94-3.45L119.94-3.45Q119.94-2.7 120.11-1.95 120.28-1.2 120.73-0.58 121.19 0.05 121.96 0.4 122.73 0.75 123.89 0.75L123.89 0.75Q126.03 0.75 128.13-0.48 130.24-1.7 132.03-3.7 133.84-5.7 135.09-8.1L135.09-8.1 135.69-7.65Q134.34-4.65 132.26-2.45 130.19-0.25 127.76 0.98 125.34 2.2 122.84 2.2ZM120.39-6.2L120.39-6.2Q121.73-6.65 123.44-7.53 125.14-8.4 126.71-9.6 128.28-10.8 129.31-12.25 130.34-13.7 130.34-15.3L130.34-15.3Q130.34-15.85 130.13-16.15 129.94-16.45 129.28-16.45L129.28-16.45Q128.09-16.45 126.73-15.53 125.39-14.6 124.14-13.1 122.89-11.6 121.89-9.8 120.89-8 120.39-6.2Z" fill="#ffffff" data-fill-palette-color="primary"></path></g></svg></g></svg></g></svg></g></svg></g><g></g></svg></g><defs></defs></svg><rect width="395.52" height="118.9655758479314" fill="none" stroke="none" visibility="hidden"></rect></g></svg></g></svg>